<svg width="1024" height="1024" viewBox="0 0 1024 1024" fill="none" xmlns="http://www.w3.org/2000/svg">
<rect width="1024" height="1024" rx="128" fill="white"/>
<rect width="1024" height="1024" rx="128" fill="url(#paint0_linear_58_759)" fill-opacity="0.65"/>
<path d="M278 568.003V266H544.634C591.816 266 638.542 268.874 680.671 293.296C731.879 325.053 746.776 358.197 745.969 412.921C745.977 479.726 724.981 516.158 680.671 541.13C638.838 565.553 591.538 568.003 544.634 568.003H278Z" fill="#C71343"/>
<path d="M278 758.457V456.454H544.634C591.816 456.454 638.542 459.327 680.671 483.75C731.879 515.507 746.776 548.651 745.969 603.374C745.977 670.179 724.981 706.611 680.671 731.584C638.838 756.006 591.538 758.457 544.634 758.457H278Z" fill="#EB6700"/>
<mask id="mask0_58_759" style="mask-type:alpha" maskUnits="userSpaceOnUse" x="278" y="266" width="468" height="303">
<path d="M278 568.004V266.001H544.634C591.816 266.001 638.542 268.874 680.671 293.297C731.879 325.054 746.776 358.198 745.969 412.921C745.977 479.726 724.981 516.158 680.671 541.131C638.838 565.553 591.538 568.004 544.634 568.004H278Z" fill="#C71343"/>
</mask>
<g mask="url(#mask0_58_759)">
<path d="M278 758.458V456.455H544.634C591.816 456.455 638.542 459.328 680.671 483.751C731.879 515.508 746.776 548.652 745.969 603.375C745.977 670.18 724.981 706.612 680.671 731.585C638.838 756.007 591.538 758.458 544.634 758.458H278Z" fill="#45207B"/>
</g>
<defs>
<linearGradient id="paint0_linear_58_759" x1="1.6157e-05" y1="1024" x2="1024" y2="1.6157e-05" gradientUnits="userSpaceOnUse">
<stop stop-color="#FF6401" stop-opacity="0.26"/>
<stop offset="0.473958" stop-color="#5B00FF" stop-opacity="0.12"/>
<stop offset="1" stop-color="#FF0030" stop-opacity="0.46"/>
</linearGradient>
</defs>
</svg>
