<svg width="659" height="694" viewBox="0 0 659 694" fill="none" xmlns="http://www.w3.org/2000/svg">
<path d="M0 425.257V0H375.452C441.891 0 507.686 4.04636 567.009 38.4365C639.116 83.1543 660.093 129.825 658.957 206.882C658.967 300.951 629.403 352.252 567.009 387.416C508.103 421.806 441.499 425.257 375.452 425.257H0Z" fill="#C71343"/>
<path d="M0 693.439V268.182H375.452C441.891 268.182 507.686 272.228 567.009 306.618C639.116 351.336 660.093 398.006 658.957 475.063C658.967 569.133 629.403 620.433 567.009 655.598C508.103 689.988 441.499 693.439 375.452 693.439H0Z" fill="#EB6700"/>
<mask id="mask0_1_39" style="mask-type:alpha" maskUnits="userSpaceOnUse" x="0" y="0" width="659" height="426">
<path d="M0 425.257V0H375.452C441.891 0 507.686 4.04636 567.009 38.4365C639.116 83.1543 660.093 129.825 658.957 206.882C658.967 300.951 629.403 352.252 567.009 387.416C508.103 421.806 441.499 425.257 375.452 425.257H0Z" fill="#C71343"/>
</mask>
<g mask="url(#mask0_1_39)">
<path d="M0 693.439V268.182H375.452C441.891 268.182 507.686 272.228 567.009 306.618C639.116 351.336 660.093 398.006 658.957 475.063C658.967 569.133 629.403 620.433 567.009 655.598C508.103 689.988 441.499 693.439 375.452 693.439H0Z" fill="#45207B"/>
</g>
</svg>
