<svg width="309" height="49" viewBox="0 0 309 49" fill="none" xmlns="http://www.w3.org/2000/svg">
<path d="M49.2402 38L48.4395 35.207H48.127C47.8014 35.7669 47.4108 36.2487 46.9551 36.6523C46.5124 37.043 46.0241 37.3685 45.4902 37.6289C44.9564 37.8893 44.39 38.0781 43.791 38.1953C43.1921 38.3255 42.5801 38.3906 41.9551 38.3906C40.8874 38.3906 39.9173 38.2409 39.0449 37.9414C38.1725 37.6289 37.4238 37.1471 36.7988 36.4961C36.1738 35.8451 35.6921 35.0182 35.3535 34.0156C35.015 33.013 34.8457 31.8086 34.8457 30.4023V16.1641H40.8027V28.918C40.8027 30.4935 41.0371 31.6784 41.5059 32.4727C41.9876 33.2539 42.7493 33.6445 43.791 33.6445C44.5723 33.6445 45.2233 33.4883 45.7441 33.1758C46.265 32.8633 46.6751 32.401 46.9746 31.7891C47.2871 31.1771 47.5085 30.4219 47.6387 29.5234C47.7689 28.625 47.834 27.5964 47.834 26.4375V16.1641H53.791V38H49.2402ZM79.5863 38H73.6293V25.2461C73.6293 23.6706 73.3884 22.4922 72.9066 21.7109C72.4379 20.9167 71.6827 20.5195 70.641 20.5195C69.8598 20.5195 69.2087 20.6758 68.6879 20.9883C68.1671 21.3008 67.7504 21.763 67.4379 22.375C67.1384 22.987 66.9236 23.7422 66.7934 24.6406C66.6632 25.5391 66.598 26.5677 66.598 27.7266V38H60.641V16.1641H65.1918L65.9926 18.957H66.3246C66.6371 18.3971 67.0147 17.9154 67.4574 17.5117C67.9132 17.1081 68.4079 16.776 68.9418 16.5156C69.4757 16.2552 70.0421 16.0664 70.641 15.9492C71.24 15.819 71.852 15.7539 72.477 15.7539C73.5447 15.7539 74.5147 15.9102 75.3871 16.2227C76.2595 16.5221 77.0082 16.9974 77.6332 17.6484C78.2582 18.2995 78.74 19.1328 79.0785 20.1484C79.4171 21.151 79.5863 22.3555 79.5863 23.7617V38ZM92.7449 38.3906C91.6251 38.3906 90.603 38.1497 89.6785 37.668C88.754 37.1862 87.9598 36.4766 87.2957 35.5391C86.6316 34.5885 86.1108 33.4102 85.7332 32.0039C85.3686 30.5977 85.1863 28.9701 85.1863 27.1211C85.1863 25.2461 85.3686 23.6055 85.7332 22.1992C86.1108 20.7799 86.6382 19.5951 87.3152 18.6445C88.0053 17.681 88.8257 16.9583 89.7762 16.4766C90.7267 15.9948 91.7749 15.7539 92.9207 15.7539C93.6238 15.7539 94.2684 15.8385 94.8543 16.0078C95.4402 16.1641 95.9676 16.3919 96.4363 16.6914C96.9051 16.9779 97.3217 17.3164 97.6863 17.707C98.0639 18.0846 98.396 18.5013 98.6824 18.957H98.8777C98.7996 18.4492 98.728 17.9349 98.6629 17.4141C98.5978 16.9714 98.5392 16.5026 98.4871 16.0078C98.448 15.5 98.4285 15.0312 98.4285 14.6016V7.60938H104.386V38H99.8348L98.6824 35.168H98.4285C98.1551 35.6107 97.8426 36.0339 97.491 36.4375C97.1395 36.8281 96.7293 37.1667 96.2605 37.4531C95.8048 37.7396 95.284 37.9674 94.698 38.1367C94.1251 38.306 93.4741 38.3906 92.7449 38.3906ZM94.9129 33.6445C95.616 33.6445 96.215 33.5273 96.7098 33.293C97.2046 33.0456 97.6017 32.681 97.9012 32.1992C98.2137 31.7044 98.4415 31.0924 98.5848 30.3633C98.741 29.6341 98.8257 28.7812 98.8387 27.8047V27.1602C98.8387 26.1055 98.7736 25.168 98.6434 24.3477C98.5132 23.5273 98.2983 22.8438 97.9988 22.2969C97.6993 21.737 97.2957 21.3138 96.7879 21.0273C96.2801 20.7409 95.6421 20.5977 94.8738 20.5977C93.6238 20.5977 92.7059 21.1641 92.1199 22.2969C91.534 23.4167 91.241 25.0508 91.241 27.1992C91.241 29.3477 91.534 30.9622 92.1199 32.043C92.7189 33.1107 93.6499 33.6445 94.9129 33.6445ZM117.212 38H111.255V7.60938H117.212V38ZM132.91 19.9922C131.855 19.9922 130.976 20.3633 130.273 21.1055C129.583 21.8477 129.186 23.013 129.082 24.6016H136.679C136.666 23.9375 136.582 23.3255 136.425 22.7656C136.269 22.2057 136.035 21.724 135.722 21.3203C135.41 20.9036 135.019 20.5781 134.55 20.3438C134.082 20.1094 133.535 19.9922 132.91 19.9922ZM133.671 38.3906C132.109 38.3906 130.67 38.1628 129.355 37.707C128.04 37.2513 126.907 36.5677 125.957 35.6562C125.006 34.7318 124.264 33.5729 123.73 32.1797C123.209 30.7734 122.949 29.1263 122.949 27.2383C122.949 25.3242 123.19 23.651 123.671 22.2188C124.153 20.7865 124.824 19.5951 125.683 18.6445C126.556 17.681 127.597 16.9583 128.808 16.4766C130.032 15.9948 131.386 15.7539 132.871 15.7539C134.316 15.7539 135.618 15.9753 136.777 16.418C137.949 16.8477 138.938 17.4857 139.746 18.332C140.566 19.1784 141.191 20.2201 141.621 21.457C142.063 22.681 142.285 24.0872 142.285 25.6758V28.5664H128.964C128.99 29.3997 129.121 30.1549 129.355 30.832C129.602 31.4961 129.941 32.0625 130.371 32.5312C130.813 32.987 131.341 33.3385 131.953 33.5859C132.578 33.8333 133.287 33.957 134.082 33.957C134.746 33.957 135.371 33.9245 135.957 33.8594C136.556 33.7812 137.135 33.6706 137.695 33.5273C138.255 33.3841 138.808 33.2083 139.355 33C139.902 32.7786 140.462 32.5247 141.035 32.2383V36.8477C140.514 37.1211 139.987 37.3555 139.453 37.5508C138.932 37.7331 138.379 37.8893 137.793 38.0195C137.207 38.1497 136.575 38.2409 135.898 38.293C135.221 38.3581 134.479 38.3906 133.671 38.3906ZM147.084 35.207C147.084 34.5951 147.169 34.0807 147.338 33.6641C147.52 33.2344 147.768 32.8893 148.08 32.6289C148.393 32.3685 148.757 32.1797 149.174 32.0625C149.59 31.9453 150.04 31.8867 150.521 31.8867C150.977 31.8867 151.407 31.9453 151.811 32.0625C152.227 32.1797 152.592 32.3685 152.904 32.6289C153.217 32.8893 153.464 33.2344 153.646 33.6641C153.829 34.0807 153.92 34.5951 153.92 35.207C153.92 35.793 153.829 36.2943 153.646 36.7109C153.464 37.1276 153.217 37.4727 152.904 37.7461C152.592 38.0195 152.227 38.2148 151.811 38.332C151.407 38.4622 150.977 38.5273 150.521 38.5273C150.04 38.5273 149.59 38.4622 149.174 38.332C148.757 38.2148 148.393 38.0195 148.08 37.7461C147.768 37.4727 147.52 37.1276 147.338 36.7109C147.169 36.2943 147.084 35.793 147.084 35.207ZM175.681 31.5156C175.681 32.6615 175.473 33.6641 175.056 34.5234C174.639 35.3828 174.047 36.099 173.279 36.6719C172.51 37.2448 171.579 37.6745 170.486 37.9609C169.392 38.2474 168.168 38.3906 166.814 38.3906C166.098 38.3906 165.433 38.3646 164.821 38.3125C164.21 38.2734 163.63 38.2018 163.083 38.0977C162.536 37.9935 162.009 37.8633 161.501 37.707C160.993 37.5508 160.479 37.3555 159.958 37.1211V32.1992C160.505 32.4727 161.078 32.7201 161.677 32.9414C162.289 33.1628 162.894 33.3581 163.493 33.5273C164.092 33.6836 164.672 33.8073 165.232 33.8984C165.805 33.9896 166.332 34.0352 166.814 34.0352C167.348 34.0352 167.803 33.9896 168.181 33.8984C168.558 33.7943 168.864 33.6576 169.099 33.4883C169.346 33.306 169.522 33.0977 169.626 32.8633C169.743 32.6159 169.802 32.3555 169.802 32.082C169.802 31.8086 169.756 31.5677 169.665 31.3594C169.587 31.138 169.398 30.9102 169.099 30.6758C168.799 30.4284 168.357 30.1549 167.771 29.8555C167.198 29.543 166.423 29.1654 165.446 28.7227C164.496 28.293 163.669 27.8698 162.966 27.4531C162.276 27.0234 161.703 26.5482 161.247 26.0273C160.805 25.5065 160.473 24.9141 160.251 24.25C160.03 23.5729 159.919 22.7721 159.919 21.8477C159.919 20.832 160.114 19.9466 160.505 19.1914C160.896 18.4232 161.449 17.7852 162.165 17.2773C162.881 16.7695 163.741 16.3919 164.743 16.1445C165.759 15.8841 166.885 15.7539 168.122 15.7539C169.424 15.7539 170.661 15.9036 171.833 16.2031C173.005 16.5026 174.21 16.9518 175.446 17.5508L173.65 21.7695C172.66 21.3008 171.716 20.9167 170.818 20.6172C169.919 20.3177 169.021 20.168 168.122 20.168C167.315 20.168 166.729 20.3112 166.364 20.5977C166.013 20.8841 165.837 21.2747 165.837 21.7695C165.837 22.0299 165.883 22.2643 165.974 22.4727C166.065 22.668 166.247 22.8763 166.521 23.0977C166.794 23.306 167.178 23.5404 167.673 23.8008C168.168 24.0482 168.812 24.3542 169.607 24.7188C170.531 25.1224 171.364 25.526 172.107 25.9297C172.849 26.3203 173.487 26.7695 174.021 27.2773C174.555 27.7852 174.965 28.3776 175.251 29.0547C175.538 29.7318 175.681 30.5521 175.681 31.5156ZM187.149 27.043C187.149 29.2174 187.455 30.8581 188.067 31.9648C188.679 33.0586 189.675 33.6055 191.055 33.6055C192.422 33.6055 193.412 33.0521 194.024 31.9453C194.636 30.8385 194.942 29.2044 194.942 27.043C194.942 24.8685 194.636 23.2474 194.024 22.1797C193.412 21.099 192.409 20.5586 191.016 20.5586C189.649 20.5586 188.659 21.099 188.047 22.1797C187.448 23.2474 187.149 24.8685 187.149 27.043ZM201.016 27.043C201.016 28.8659 200.782 30.4805 200.313 31.8867C199.857 33.293 199.193 34.4779 198.321 35.4414C197.461 36.4049 196.407 37.1406 195.157 37.6484C193.92 38.1432 192.526 38.3906 190.977 38.3906C189.532 38.3906 188.204 38.1432 186.993 37.6484C185.782 37.1406 184.733 36.4049 183.848 35.4414C182.976 34.4779 182.292 33.293 181.797 31.8867C181.302 30.4805 181.055 28.8659 181.055 27.043C181.055 25.2331 181.283 23.625 181.739 22.2188C182.207 20.8125 182.871 19.6341 183.731 18.6836C184.603 17.7201 185.658 16.9909 186.895 16.4961C188.132 16.0013 189.532 15.7539 191.094 15.7539C192.539 15.7539 193.868 16.0013 195.079 16.4961C196.289 16.9909 197.331 17.7201 198.204 18.6836C199.089 19.6341 199.779 20.8125 200.274 22.2188C200.769 23.625 201.016 25.2331 201.016 27.043ZM217.054 38.3906C215.492 38.3906 214.079 38.1758 212.816 37.7461C211.566 37.3164 210.492 36.6523 209.593 35.7539C208.708 34.8424 208.024 33.6836 207.543 32.2773C207.074 30.8581 206.839 29.1654 206.839 27.1992C206.839 25.0247 207.08 23.2083 207.562 21.75C208.057 20.2786 208.747 19.1003 209.632 18.2148C210.531 17.3294 211.605 16.6979 212.855 16.3203C214.118 15.9427 215.518 15.7539 217.054 15.7539C218.174 15.7539 219.287 15.8906 220.394 16.1641C221.501 16.4375 222.543 16.8216 223.519 17.3164L221.8 21.8477C220.941 21.4701 220.114 21.1641 219.32 20.9297C218.526 20.6823 217.77 20.5586 217.054 20.5586C215.609 20.5586 214.561 21.112 213.91 22.2188C213.259 23.3125 212.933 24.9596 212.933 27.1602C212.933 29.3477 213.259 30.9622 213.91 32.0039C214.561 33.0456 215.583 33.5664 216.976 33.5664C218.109 33.5664 219.138 33.4232 220.062 33.1367C220.987 32.8372 221.931 32.4596 222.894 32.0039V36.9648C222.412 37.1992 221.944 37.4076 221.488 37.5898C221.032 37.7721 220.57 37.9219 220.101 38.0391C219.645 38.1562 219.164 38.2409 218.656 38.293C218.161 38.3581 217.627 38.3906 217.054 38.3906ZM229.479 10.5195C229.479 9.95964 229.564 9.4974 229.733 9.13281C229.902 8.75521 230.13 8.45573 230.417 8.23438C230.716 8 231.061 7.83724 231.452 7.74609C231.856 7.65495 232.279 7.60938 232.721 7.60938C233.164 7.60938 233.581 7.65495 233.971 7.74609C234.362 7.83724 234.701 8 234.987 8.23438C235.287 8.45573 235.521 8.75521 235.69 9.13281C235.873 9.4974 235.964 9.95964 235.964 10.5195C235.964 11.0664 235.873 11.5286 235.69 11.9062C235.521 12.2839 235.287 12.5898 234.987 12.8242C234.701 13.0456 234.362 13.2083 233.971 13.3125C233.581 13.4036 233.164 13.4492 232.721 13.4492C232.279 13.4492 231.856 13.4036 231.452 13.3125C231.061 13.2083 230.716 13.0456 230.417 12.8242C230.13 12.5898 229.902 12.2839 229.733 11.9062C229.564 11.5286 229.479 11.0664 229.479 10.5195ZM235.69 38H229.733V16.1641H235.69V38ZM256.436 38L255.283 35.0312H255.107C254.678 35.6172 254.248 36.125 253.818 36.5547C253.389 36.9714 252.92 37.3164 252.412 37.5898C251.904 37.8633 251.331 38.0651 250.693 38.1953C250.068 38.3255 249.339 38.3906 248.506 38.3906C247.62 38.3906 246.8 38.2539 246.045 37.9805C245.29 37.694 244.632 37.2708 244.072 36.7109C243.525 36.138 243.096 35.4219 242.783 34.5625C242.471 33.6901 242.314 32.6615 242.314 31.4766C242.314 29.1589 243.057 27.4531 244.541 26.3594C246.025 25.2526 248.245 24.6406 251.201 24.5234L254.678 24.4062V22.7656C254.678 21.8672 254.417 21.2031 253.896 20.7734C253.376 20.3438 252.646 20.1289 251.709 20.1289C250.771 20.1289 249.854 20.2656 248.955 20.5391C248.07 20.8125 247.178 21.1771 246.279 21.6328L244.346 17.6875C245.439 17.0755 246.65 16.5938 247.979 16.2422C249.307 15.8906 250.7 15.7148 252.158 15.7148C254.88 15.7148 256.963 16.3529 258.408 17.6289C259.867 18.9049 260.596 20.8451 260.596 23.4492V38H256.436ZM254.678 27.8828L252.705 27.9609C251.911 27.987 251.24 28.0911 250.693 28.2734C250.146 28.4557 249.704 28.7031 249.365 29.0156C249.04 29.3151 248.799 29.6797 248.643 30.1094C248.499 30.526 248.428 30.9948 248.428 31.5156C248.428 32.4271 248.649 33.0781 249.092 33.4688C249.535 33.8464 250.114 34.0352 250.83 34.0352C251.377 34.0352 251.885 33.944 252.354 33.7617C252.822 33.5664 253.226 33.2865 253.564 32.9219C253.916 32.5443 254.189 32.0885 254.385 31.5547C254.58 31.0078 254.678 30.3828 254.678 29.6797V27.8828ZM274.486 38H268.529V7.60938H274.486V38Z" fill="white"/>
<path d="M0 26.511V7.5H16.5222C19.4459 7.5 22.3413 7.68089 24.9519 9.21829C28.125 11.2174 29.0481 13.3038 28.9981 16.7486C28.9985 20.9539 27.6976 23.2473 24.9519 24.8193C22.3596 26.3567 19.4286 26.511 16.5222 26.511H0Z" fill="#C71343"/>
<path d="M0 38.5V19.489H16.5222C19.4459 19.489 22.3413 19.6699 24.9519 21.2073C28.125 23.2064 29.0481 25.2928 28.9981 28.7376C28.9985 32.943 27.6976 35.2363 24.9519 36.8084C22.3596 38.3457 19.4286 38.5 16.5222 38.5H0Z" fill="#EB6700"/>
<mask id="mask0_60_320" style="mask-type:alpha" maskUnits="userSpaceOnUse" x="0" y="7" width="29" height="20">
<path d="M0 26.511V7.5H16.5222C19.4459 7.5 22.3413 7.68089 24.9519 9.21829C28.125 11.2174 29.0481 13.3038 28.9981 16.7486C28.9985 20.9539 27.6976 23.2473 24.9519 24.8193C22.3596 26.3567 19.4286 26.511 16.5222 26.511H0Z" fill="#C71343"/>
</mask>
<g mask="url(#mask0_60_320)">
<path d="M0 38.5V19.489H16.5222C19.4459 19.489 22.3413 19.6699 24.9519 21.2073C28.125 23.2064 29.0481 25.2928 28.9981 28.7376C28.9985 32.943 27.6976 35.2363 24.9519 36.8084C22.3596 38.3457 19.4286 38.5 16.5222 38.5H0Z" fill="#45207B"/>
</g>
</svg>
